<svg  fill="#222a7e" xmlns="http://www.w3.org/2000/svg" viewBox="0 0 374 115.18"><title>TeamUp Logo</title><path d="M21.5,39.07H0V27.45H55.78V39.07H34.28V95.23H21.5Z"/><path d="M58.87,75.57c.77,5.91,5.91,10.17,14.23,10.17,4.36,0,10.07-1.65,12.78-4.46l7.55,7.46c-5,5.23-13.27,7.75-20.53,7.75C56.45,96.49,46.67,86.32,46.67,71c0-14.53,9.88-25,25.37-25,16,0,26,9.88,24.11,29.53Zm26-9.78c-.77-6.2-5.62-9.3-12.39-9.3-6.39,0-11.62,3.1-13.36,9.3Z"/><path d="M142.34,47.49h11.33V95.23H142.53l-.58-7c-2.71,5.62-10.17,8.33-15.49,8.42-14.14.1-24.6-8.62-24.6-25.37,0-16.46,10.94-25.08,24.89-25,6.39,0,12.49,3,15.2,7.75ZM113.68,71.31c0,9.1,6.29,14.53,14.14,14.53,18.59,0,18.59-29,0-29C120,56.89,113.68,62.21,113.68,71.31Z"/><path d="M194.62,95.23V69.67c0-6.29-3.29-12-9.78-12s-10.17,5.71-10.17,12V95.23H162.86V47.4H173.8l.87,5.81c2.52-4.84,8-6.58,12.59-6.58,5.71,0,11.43,2.32,14.14,8.91,4.26-6.78,9.78-8.71,16-8.71,13.56,0,20.24,8.33,20.24,22.66V95.23H225.8V69.47c0-6.29-2.61-11.62-9-11.62s-10.36,5.52-10.36,11.81V95.23Z"/><path d="M309.79,23.82V64.3c0,20.9-12.82,31.6-30.59,31.6-17,0-31.4-10.3-31.4-31.6V23.82H261V64.3c0,12.72,7.27,19.48,18.27,19.48s17.26-7.37,17.26-19.48V23.82Z"/><path d="M320,115.18V44.61H331.5l.81,6.86c3.84-5.55,10.5-8,16.15-8,15.34,0,25.54,11.41,25.54,26s-9.19,26-25.14,26c-5.25,0-13-1.62-16.56-7.07v26.65Zm41.69-45.63c0-7.77-5.25-14.13-14.13-14.13s-14.13,6.36-14.13,14.13a14.13,14.13,0,0,0,28.27,0Z"/><polygon points="254.42 0 237.38 29.52 271.46 29.52 254.42 0"/></svg>